Coordinates
version=1
nRows=41
nColumns=38
inDegrees=no

Units are S.I. units (second, meters, Newtons, ...)
If the header above contains a line with 'inDegrees', this indicates whether rotational values are in degrees (yes) or radians (no).

endheader
time	pelvis_tilt	pelvis_list	pelvis_rotation	pelvis_tx	pelvis_ty	pelvis_tz	hip_flexion_r	hip_adduction_r	hip_rotation_r	knee_angle_r	ankle_angle_r	subtalar_angle_r	mtp_angle_r	hip_flexion_l	hip_adduction_l	hip_rotation_l	knee_angle_l	ankle_angle_l	subtalar_angle_l	mtp_angle_l	lumbar_extension	lumbar_bending	lumbar_rotation	arm_flex_r	arm_add_r	arm_rot_r	elbow_flex_r	pro_sup_r	wrist_flex_r	wrist_dev_r	arm_flex_l	arm_add_l	arm_rot_l	elbow_flex_l	pro_sup_l	wrist_flex_l	wrist_dev_l
0	-1.65114	1.45822	0.145377	0.664368	2.14606	1.0557	-0.134065	0.166468	-0.269459	0.0135685	-0.19861	0	0	0.313138	-0.247142	-0.271421	0.665849	-0.139538	0	0	-0.220174	0.135792	0.0212934	-0.0148255	-0.285729	0.140484	0.721845	1.5708	0	0	-0.146369	-0.290179	0.321412	0.725953	1.16786	0	0
0.01	-1.78065	1.45275	0.261472	0.662815	2.13506	1.05378	-0.113755	0.157571	-0.278488	0.0641482	-0.165108	0	0	0.339663	-0.257525	-0.342079	0.625345	-0.154309	0	0	-0.198535	0.134618	0.0323817	-0.0103933	-0.287356	0.136578	0.729117	1.5708	0	0	-0.156273	-0.286567	0.32331	0.716971	1.15917	0	0
0.02	-2.23331	1.50442	0.710416	0.665093	2.12611	1.05395	-0.107286	0.0717088	-0.245983	0.0984126	-0.130719	0	0	0.341626	-0.156284	-0.313242	0.513679	-0.181759	0	0	-0.191078	0.0632948	0.0208945	0.0142224	-0.274237	0.132034	0.71575	1.5708	0	0	-0.153174	-0.289882	0.325148	0.702324	1.1516	0	0
0.03	-2.15975	1.45431	0.630172	0.662412	2.11355	1.04691	-0.118211	0.128251	-0.187993	0.034263	-0.15304	0	0	0.394562	-0.222661	-0.400309	0.509478	-0.181816	0	0	-0.156597	0.108084	0.0328207	-0.00470523	-0.289241	0.125267	0.762066	1.5708	0	0	-0.179549	-0.287048	0.319688	0.717426	1.14395	0	0
0.04	-2.21675	1.44887	0.682228	0.662132	2.10146	1.04469	-0.126887	0.130798	-0.1874	0.0179305	-0.156859	0	0	0.404985	-0.214716	-0.421732	0.441187	-0.192239	0	0	-0.147195	0.106221	0.0367744	-0.00195067	-0.292641	0.122329	0.777042	1.5708	0	0	-0.187633	-0.283659	0.318425	0.711564	1.14044	0	0
0.05	-2.25527	1.44805	0.722994	0.662974	2.08958	1.04242	-0.121251	0.126708	-0.237267	0.0470229	-0.140201	0	0	0.409847	-0.195748	-0.420182	0.364075	-0.208724	0	0	-0.14359	0.103195	0.0347938	-0.000131567	-0.294817	0.111912	0.795316	1.5708	0	0	-0.188212	-0.289259	0.349211	0.706634	1.11057	0	0
0.06	-2.40115	1.48999	0.873804	0.665967	2.07921	1.0462	-0.173223	0.0850524	-0.224036	0	-0.16255	0	0	0.354727	-0.105187	-0.269863	0.196758	-0.25283	0	0	-0.177257	0.0593259	0.0255679	0.0269917	-0.285395	0.101876	0.785516	1.5708	0	0	-0.16533	-0.289733	0.375267	0.678087	1.09218	0	0
0.07	-2.44931	1.48104	0.919079	0.666727	2.06718	1.04304	-0.178638	0.0879974	-0.223564	0	-0.153063	0	0	0.357606	-0.0949266	-0.243142	0.111191	-0.267125	0	0	-0.166896	0.0616468	0.0318197	0.0245003	-0.290869	0.0913962	0.805328	1.5708	0	0	-0.164961	-0.285856	0.391526	0.665733	1.07803	0	0
0.08	-2.47875	1.46908	0.946366	0.667304	2.05512	1.03933	-0.181571	0.0938164	-0.223569	0	-0.129724	0	0	0.362332	-0.0893477	-0.209676	0.0297211	-0.275216	0	0	-0.155016	0.0665916	0.0363049	0.0223688	-0.29585	0.0818217	0.825215	1.5708	0	0	-0.166763	-0.280829	0.400786	0.654571	1.06554	0	0
0.09	-2.46604	1.46207	0.931118	0.667669	2.04308	1.03591	-0.189952	0.0998876	-0.227559	0	-0.16018	0	0	0.369012	-0.0896854	-0.204492	0	-0.272408	0	0	-0.15242	0.0703433	0.0376005	0.027649	-0.301327	0.0827462	0.840217	1.5708	0	0	-0.177815	-0.265187	0.356352	0.648681	1.10386	0	0
0.1	-2.50286	1.45431	0.972038	0.668996	2.03065	1.03129	-0.110209	0.064859	-0.417308	0.194145	-0.0386979	0	0	0.383524	-0.0837282	-0.191135	0	-0.264697	0	0	-0.142877	0.0723495	0.0349001	0.0210744	-0.30464	0.0670819	0.866799	1.5708	0	0	-0.176572	-0.272685	0.401454	0.645316	1.04866	0	0
0.11	-2.47994	1.44672	0.947424	0.669402	2.01855	1.02768	-0.112756	0.0640433	-0.436916	0.213175	-0.0331721	0	0	0.393836	-0.0872371	-0.18626	0	-0.257238	0	0	-0.141392	0.0784184	0.0365756	0.0239325	-0.309249	0.0638631	0.884118	1.5708	0	0	-0.179021	-0.266612	0.397737	0.638605	1.04281	0	0
0.12	-2.45629	1.44331	0.923384	0.670379	2.00611	1.02444	-0.124815	0.0712043	-0.437868	0.20897	-0.0315524	0	0	0.400082	-0.0873777	-0.184844	0	-0.250999	0	0	-0.143594	0.0825878	0.036635	0.028097	-0.31455	0.0636823	0.898663	1.5708	0	0	-0.180547	-0.259318	0.391493	0.630594	1.04028	0	0
0.13	-2.40359	1.44549	0.868931	0.671305	1.99358	1.02198	-0.15173	0.0828992	-0.416981	0.18156	-0.0457408	0	0	0.398733	-0.0870291	-0.189342	0	-0.218184	0	0	-0.154643	0.0863207	0.0428083	0.0264703	-0.312208	0.0386557	0.917868	1.5708	0	0	-0.16388	-0.274523	0.477484	0.625151	0.946305	0	0
0.14	-2.38333	1.44801	0.847075	0.671726	1.98099	1.01993	-0.171574	0.0872865	-0.405151	0.168302	-0.0487729	0	0	0.407326	-0.0782693	-0.199274	0	-0.206474	0	0	-0.163041	0.0832942	0.0455686	0.0316	-0.31164	0.0328552	0.925429	1.5708	0	0	-0.160903	-0.271754	0.478094	0.617715	0.938917	0	0
0.15	-2.33371	1.45403	0.793671	0.67286	1.96807	1.01785	-0.195572	0.0880126	-0.391742	0.159963	-0.0562555	0	0	0.394509	-0.0786195	-0.201216	0	-0.190712	0	0	-0.17713	0.0821535	0.0510342	0.0311439	-0.312222	0.0186299	0.941841	1.5708	0	0	-0.158196	-0.26695	0.476883	0.613091	0.926408	0	0
0.16	-2.31829	1.46022	0.7757	0.673245	1.95507	1.01658	-0.213894	0.0852724	-0.380837	0.157526	-0.0598223	0	0	0.400598	-0.0679144	-0.212081	0	-0.179325	0	0	-0.188022	0.0748175	0.0530024	0.0357123	-0.309901	0.0130752	0.947095	1.5708	0	0	-0.155059	-0.26507	0.473888	0.60661	0.921177	0	0
0.17	-2.28305	1.46337	0.736558	0.673673	1.94131	1.01486	-0.231095	0.0846473	-0.370098	0.158719	-0.0630743	0	0	0.400546	-0.0767081	-0.208621	0	-0.160012	0	0	-0.19556	0.0716852	0.0567289	0.0355033	-0.309039	0.00711285	0.95447	1.5708	0	0	-0.155594	-0.262951	0.468758	0.603599	0.917761	0	0
0.18	-2.31304	1.46937	0.766486	0.675108	1.92766	1.01374	-0.242575	0.0754185	-0.364087	0.165062	-0.0641865	0	0	0.39572	-0.0579092	-0.206437	0	-0.179339	0	0	-0.199699	0.0621512	0.055374	0.0363023	-0.30724	0.00283083	0.956181	1.5708	0	0	-0.153515	-0.259714	0.463173	0.596053	0.91839	0	0
0.19	-2.29552	1.47883	0.747107	0.675962	1.91334	1.01329	-0.26018	0.0668569	-0.358822	0.17259	-0.081997	0	0	0.390003	-0.0499286	-0.208355	0	-0.208325	0	0	-0.210196	0.0520721	0.0558295	0.0355986	-0.300628	-0.00798958	0.957849	1.5708	0	0	-0.156635	-0.252002	0.427468	0.592225	0.94327	0	0
0.2	-2.29429	1.48482	0.742202	0.676633	1.89835	1.01266	-0.272963	0.05883	-0.351803	0.182756	-0.108835	0	0	0.387818	-0.0449266	-0.212828	0	-0.19688	0	0	-0.213824	0.0432474	0.0593304	0.0304234	-0.29117	-0.0249565	0.957722	1.5708	0	0	-0.152042	-0.262845	0.466265	0.593187	0.900422	0	0
0.21	-2.30178	1.48916	0.745575	0.677402	1.88284	1.01199	-0.282506	0.050262	-0.345106	0.196878	-0.122617	0	0	0.390843	-0.0415774	-0.228135	0.0412057	-0.191573	0	0	-0.213914	0.0351087	0.0618538	0.0251458	-0.285684	-0.0314358	0.954952	1.5708	0	0	-0.155667	-0.262812	0.45928	0.592717	0.901725	0	0
0.22	-2.31495	1.49321	0.752679	0.678286	1.86691	1.0114	-0.289314	0.0396665	-0.337365	0.215898	-0.144043	0	0	0.392499	-0.0385502	-0.246629	0.0793314	-0.196157	0	0	-0.211881	0.0267506	0.0666148	0.0182966	-0.281086	-0.0360801	0.950084	1.5708	0	0	-0.160603	-0.261808	0.44902	0.592969	0.904951	0	0
0.23	-2.33627	1.49723	0.767425	0.679293	1.85089	1.01107	-0.292753	0.0274239	-0.327207	0.240713	-0.149578	0	0	0.394249	-0.0356736	-0.264361	0.113753	-0.204809	0	0	-0.208876	0.0181589	0.0714477	0.0118411	-0.277097	-0.0381353	0.942506	1.5708	0	0	-0.164105	-0.263298	0.449034	0.594122	0.897265	0	0
0.24	-2.35885	1.50178	0.783812	0.680409	1.83501	1.01118	-0.291991	0.0133204	-0.317177	0.274209	-0.176159	0	0	0.395198	-0.0350036	-0.282161	0.148875	-0.209503	0	0	-0.206819	0.00939711	0.074936	0.00682483	-0.2728	-0.0384494	0.932576	1.5708	0	0	-0.167216	-0.264057	0.445907	0.595392	0.890083	0	0
0.25	-2.41503	1.5045	0.8349	0.681689	1.81923	1.01138	-0.283386	-0.00247431	-0.306835	0.317063	-0.211609	0	0	0.399873	-0.0380574	-0.304707	0.190996	-0.200829	0	0	-0.201861	0.000958108	0.0760802	0.00220866	-0.268687	-0.0359298	0.920884	1.5708	0	0	-0.170637	-0.263989	0.440124	0.596251	0.883794	0	0
0.26	-2.50808	1.50397	0.92497	0.683175	1.80366	1.01148	-0.267269	-0.0182005	-0.293907	0.364445	-0.250171	0	0	0.407984	-0.0429307	-0.323206	0.23931	-0.18354	0	0	-0.192873	-0.00656942	0.0748137	-0.00292155	-0.264727	-0.0319269	0.907985	1.5708	0	0	-0.174186	-0.263908	0.433365	0.597659	0.878951	0	0
0.27	-2.56975	1.48943	0.986972	0.684289	1.78815	1.0098	-0.22006	-0.0296515	-0.311827	0.447469	-0.308775	0	0	0.425877	-0.067376	-0.262642	0.360984	-0.109562	0	0	-0.17027	-0.00387551	0.0707746	-0.0124956	-0.263084	-0.0232444	0.898076	1.5708	0	0	-0.191625	-0.250796	0.36576	0.604067	0.931168	0	0
0.28	-2.78056	1.49749	1.19712	0.686649	1.77355	1.01196	-0.218566	-0.0522507	-0.259639	0.468181	-0.352918	0	0	0.422882	-0.038478	-0.336909	0.306833	-0.171078	0	0	-0.169238	-0.0254123	0.0664343	-0.0123922	-0.254573	-0.0233262	0.87732	1.5708	0	0	-0.177344	-0.26808	0.427861	0.603036	0.866679	0	0
0.29	-2.90969	1.48677	1.31685	0.687897	1.7592	1.01166	-0.190464	-0.0698584	-0.147425	0.516979	-0.379328	0	0	0.444903	-0.0538373	-0.396807	0.3735	-0.16235	0	0	-0.150483	-0.0341891	0.0725738	-0.0197443	-0.251573	-0.019524	0.863811	1.5708	0	0	-0.176781	-0.269672	0.429129	0.605179	0.863367	0	0
0.3	-3.01621	1.47942	1.41952	0.689315	1.74519	1.01199	-0.159749	-0.0843017	-0.0872987	0.562659	-0.414619	0	0	0.447472	-0.0471699	-0.395255	0.389951	-0.1509	0	0	-0.137891	-0.0442852	0.0738603	-0.025189	-0.247083	-0.0158047	0.849108	1.5708	0	0	-0.173637	-0.273783	0.43128	0.609463	0.863318	0	0
0.31	-2.93253	1.44481	1.33751	0.69044	1.73198	1.00825	-0.0972425	-0.0686208	-0.0316851	0.617263	-0.464574	0	0	0.468956	-0.0512012	-0.186067	0.534854	-0.0252684	0	0	-0.0953395	-0.0268743	0.0737301	-0.0421911	-0.249435	-0.00985239	0.845565	1.5708	0	0	-0.179112	-0.276804	0.432204	0.621259	0.866674	0	0
0.32	2.99562	1.48395	1.69722	0.692767	1.71611	1.0126	-0.081771	-0.15541	-0.255591	0.746701	-0.550576	0	0	0.423758	-0.0178114	-0.393899	0.413343	-0.131625	0	0	-0.135462	-0.073348	0.0605577	-0.039361	-0.238953	-0.00126033	0.829774	1.5708	0	0	-0.176528	-0.295987	0.431197	0.648675	0.869364	0	0
0.33	2.98587	1.47224	1.69557	0.693336	1.70411	1.01308	-0.0552404	-0.152624	-0.0801424	0.740307	-0.60648	0	0	0.425247	-0.0153373	-0.386419	0.416583	-0.126146	0	0	-0.123077	-0.0775832	0.0697704	-0.0386027	-0.238589	0.0119965	0.811643	1.5708	0	0	-0.164412	-0.300528	0.44247	0.650395	0.872569	0	0
0.34	2.82575	1.49245	1.86294	0.695394	1.68931	1.01538	-0.0315476	-0.180079	-0.252894	0.836929	-0.66873	0	0	0.383459	0.000724854	-0.387559	0.412282	-0.116179	0	0	-0.146743	-0.0883281	0.0574031	-0.0407623	-0.237935	0.0273953	0.803361	1.5708	0	0	-0.160729	-0.313694	0.44639	0.673299	0.880094	0	0
0.35	2.76653	1.4961	1.91459	0.696312	1.67598	1.01707	-0.004864	-0.188094	-0.237846	0.87861	-0.698132	0	0	0.359271	0.00770288	-0.386819	0.401455	-0.105649	0	0	-0.15106	-0.0930151	0.0577979	-0.0365171	-0.241191	0.0549647	0.784805	1.5708	0	0	-0.160527	-0.307499	0.405533	0.680308	0.931994	0	0
0.36	2.74702	1.49779	1.92631	0.697194	1.6628	1.01871	0.0245829	-0.192049	-0.218362	0.921046	-0.694889	0	0	0.337969	0.00975684	-0.398812	0.392294	-0.0999249	0	0	-0.151113	-0.0943469	0.0599512	-0.0336313	-0.24031	0.0716637	0.765881	1.5708	0	0	-0.151071	-0.313587	0.414619	0.686987	0.938107	0	0
0.37	2.77057	1.49845	1.89692	0.698303	1.64985	1.02033	0.055379	-0.192599	-0.20097	0.962106	-0.668675	0	0	0.31945	0.00767916	-0.41789	0.385454	-0.0943088	0	0	-0.148883	-0.0921416	0.058557	-0.0285149	-0.243679	0.101269	0.745603	1.5708	0	0	-0.144221	-0.31657	0.413746	0.69347	0.954146	0	0
0.38	2.79727	1.50128	1.86563	0.699473	1.63695	1.02241	0.0824658	-0.191623	-0.186689	0.999436	-0.626253	0	0	0.297176	0.0072004	-0.425689	0.373155	-0.0899137	0	0	-0.148893	-0.0886623	0.0556327	-0.0222891	-0.247975	0.134881	0.725208	1.5708	0	0	-0.138774	-0.316729	0.402441	0.699864	0.98059	0	0
0.39	2.82372	1.50593	1.83654	0.70075	1.62398	1.02494	0.105576	-0.189876	-0.17628	1.03156	-0.580948	0	0	0.271586	0.00910694	-0.419745	0.355382	-0.0872673	0	0	-0.150661	-0.0844303	0.0511951	-0.0168296	-0.251556	0.166524	0.706004	1.5708	0	0	-0.134221	-0.315808	0.385882	0.707113	1.01208	0	0
0.4	2.85823	1.50928	1.80199	0.702277	1.61091	1.02754	0.128132	-0.188521	-0.170506	1.05863	-0.536036	0	0	0.246912	0.013314	-0.403523	0.334365	-0.0871595	0	0	-0.15021	-0.0797216	0.045086	-0.013572	-0.25497	0.196378	0.688468	1.5708	0	0	-0.13051	-0.313904	0.366393	0.714057	1.04534	0	0
